:SAMPLES-PER-SECOND 30
:FRAME-RANGE 1-2775
:FULLY-SPECIFIED
:DEGREES
694
root  48.8007 38.4464 -15.8051 -161.698 -77.5061 161.378
RightUpLeg  13.3392 -15.4292 -17.7902
RightLeg  22.9242 -7.74084 -3.78965
RightFoot  -12.8346 0.358336 33.3688
RightToes  -5.28216e-011 1.2921e-014 -6.02303e-014
Spine  7.10336 2.18013 0.24694
Spine1  -2.23361 2.60385 -3.90588
HEad  -1.9762 31.1781 -6.88783
LeftShoulder1  0.517543 1.8471 -25.0043
LeftArm  -53.8824 -7.03712 3.60265
LeftForeArm  23.1684 -59.0888 -16.8746
LeftHand  -0.0930614 1.91562 2.81978
RightShoulder  5.04009 6.03459 46.2733
RightArm  6.90626 -5.10084 9.90764
RightForeArm  17.81 4.00675 15.6185
RightHand  0.00814492 9.2486 -0.333289
LeftUpLeg  -21.1458 15.1437 -12.3962
LeftLeg  17.7986 16.1772 3.64131
LeftFoot  -2.04469 -0.601176 7.53432
LeftToes  -2.158e-010 -1.26819e-010 -1.05346e-011
695
root  47.7999 38.4768 -15.8222 -157.523 -79.0272 156.709
RightUpLeg  8.10223 -11.1831 -17.155
RightLeg  35.5559 -8.99583 -7.09334
RightFoot  -5.87939 -1.60711 32.0289
RightToes  -5.28216e-011 1.2921e-014 -6.02303e-014
Spine  7.42224 2.20504 -1.08037
Spine1  -2.17706 2.38537 -3.63454
HEad  -0.556877 30.5416 -6.30002
LeftShoulder1  0.627835 1.47674 -24.7313
LeftArm  -53.9119 -10.907 3.44912
LeftForeArm  24.3525 -59.0564 -16.7266
LeftHand  -0.0998159 1.73183 2.92434
RightShoulder  5.06563 5.98781 46.749
RightArm  5.97797 -5.52917 10.5119
RightForeArm  16.8744 3.88315 15.5844
RightHand  0.117893 9.27151 0.532177
LeftUpLeg  -19.1604 14.7168 -12.4045
LeftLeg  18.6532 15.3616 2.89054
LeftFoot  -3.78498 -0.486571 7.70199
LeftToes  -2.158e-010 -1.26819e-010 -1.05346e-011
696
root  46.7916 38.6007 -15.8444 -153.178 -80.3907 152.135
RightUpLeg  0.604768 -7.22014 -15.7534
RightLeg  48.6294 -8.32428 -10.3171
RightFoot  6.95141 -2.3812 15.0106
RightToes  -5.28216e-011 1.2921e-014 -6.02303e-014
Spine  7.54421 1.85354 -2.18818
Spine1  -2.21443 1.89435 -3.12038
HEad  0.128908 30.7121 -5.89322
LeftShoulder1  0.702809 1.23419 -24.7279
LeftArm  -53.9805 -14.412 4.15382
LeftForeArm  25.2976 -58.625 -16.3114
LeftHand  -0.112326 1.53525 3.18681
RightShoulder  5.38895 6.44947 47.4361
RightArm  7.53101 -5.70776 11.304
RightForeArm  14.6904 5.13984 15.3955
RightHand  0.183765 9.15497 1.0654
LeftUpLeg  -16.806 13.6939 -12.0117
LeftLeg  18.4303 15.0388 1.91776
LeftFoot  -5.23472 -0.359638 7.32409
LeftToes  -2.158e-010 -1.26819e-010 -1.05346e-011
697
root  45.9644 38.512 -15.8928 -143.443 -81.6684 142.097
RightUpLeg  -5.17104 -3.7149 -15.2755
RightLeg  56.9206 -4.08525 -7.15928
RightFoot  6.76818 -2.11247 13.4925
RightToes  -5.28216e-011 1.2921e-014 -6.02303e-014
Spine  8.37229 1.47616 -4.47715
Spine1  -2.30141 1.04924 -2.70072
HEad  0.580089 30.8488 -5.5239
LeftShoulder1  0.774797 0.995453 -24.6504
LeftArm  -53.8357 -17.7507 4.65534
LeftForeArm  25.0547 -57.7128 -15.6954
LeftHand  -0.111555 1.35965 3.04939
RightShoulder  5.45587 6.50118 47.7815
RightArm  10.4754 -5.54292 12.5564
RightForeArm  13.7982 7.22617 14.8032
RightHand  0.197423 9.46637 1.13604
LeftUpLeg  -15.6167 11.1736 -12.2551
LeftLeg  20.0158 15.7641 2.08631
LeftFoot  -7.15081 -0.197459 6.56822
LeftToes  -2.158e-010 -1.26819e-010 -1.05346e-011
698
root  45.0947 38.5338 -15.9191 -133.352 -83.3583 131.555
RightUpLeg  -9.7129 -1.20443 -14.3208
RightLeg  61.0479 -1.20005 -2.86044
RightFoot  4.65554 -2.16523 15.551
RightToes  -5.28216e-011 1.2921e-014 -6.02303e-014
Spine  9.13248 1.03356 -5.80075
Spine1  -2.31973 0.20941 -1.92647
HEad  0.929109 30.8237 -5.61222
LeftShoulder1  0.890264 0.62395 -24.6813
LeftArm  -53.5169 -21.0146 4.54345
LeftForeArm  24.4454 -56.5862 -15.0122
LeftHand  -0.104927 1.14901 2.74155
RightShoulder  5.36576 6.31662 47.8779
RightArm  16.0466 -5.63169 13.7861
RightForeArm  10.3426 10.9318 13.3506
RightHand  0.186905 9.55618 1.044
LeftUpLeg  -13.74 8.65971 -11.8795
LeftLeg  20.6756 16.2971 2.1669
LeftFoot  -8.63141 -0.0896442 5.98295
LeftToes  -2.158e-010 -1.26819e-010 -1.05346e-011
